<svg width="28" height="28" viewBox="0 0 28 28" fill="none" xmlns="http://www.w3.org/2000/svg">
<path d="M22.0001 12.6667H17.7601C17.2001 11.12 15.7334 10 14.0001 10C12.2667 10 10.8001 11.12 10.2401 12.6667H6.00008C5.56008 12.6667 3.33341 12.5334 3.33341 10V8.66669C3.33341 6.22669 5.38675 6.00002 6.00008 6.00002H19.5734C20.1334 7.54669 21.6001 8.66669 23.3334 8.66669C24.3943 8.66669 25.4117 8.24526 26.1618 7.49511C26.912 6.74497 27.3334 5.72755 27.3334 4.66669C27.3334 3.60582 26.912 2.58841 26.1618 1.83826C25.4117 1.08811 24.3943 0.666687 23.3334 0.666687C21.6001 0.666687 20.1334 1.78669 19.5734 3.33335H6.00008C3.85341 3.33335 0.666748 4.74669 0.666748 8.66669V10C0.666748 13.92 3.85341 15.3334 6.00008 15.3334H10.2401C10.8001 16.88 12.2667 18 14.0001 18C15.7334 18 17.2001 16.88 17.7601 15.3334H22.0001C22.4401 15.3334 24.6667 15.4667 24.6667 18V19.3334C24.6667 21.7734 22.6134 22 22.0001 22H8.42675C7.86675 20.4534 6.40008 19.3334 4.66675 19.3334C3.60588 19.3334 2.58847 19.7548 1.83832 20.5049C1.08818 21.2551 0.666748 22.2725 0.666748 23.3334C0.666748 24.3942 1.08818 25.4116 1.83832 26.1618C2.58847 26.9119 3.60588 27.3334 4.66675 27.3334C6.40008 27.3334 7.86675 26.2134 8.42675 24.6667H22.0001C24.1467 24.6667 27.3334 23.24 27.3334 19.3334V18C27.3334 14.0934 24.1467 12.6667 22.0001 12.6667ZM23.3334 3.33335C23.687 3.33335 24.0262 3.47383 24.2762 3.72388C24.5263 3.97393 24.6667 4.31307 24.6667 4.66669C24.6667 5.02031 24.5263 5.35945 24.2762 5.6095C24.0262 5.85954 23.687 6.00002 23.3334 6.00002C22.9798 6.00002 22.6407 5.85954 22.3906 5.6095C22.1406 5.35945 22.0001 5.02031 22.0001 4.66669C22.0001 4.31307 22.1406 3.97393 22.3906 3.72388C22.6407 3.47383 22.9798 3.33335 23.3334 3.33335ZM4.66675 24.6667C4.31313 24.6667 3.97399 24.5262 3.72394 24.2762C3.47389 24.0261 3.33341 23.687 3.33341 23.3334C3.33341 22.9797 3.47389 22.6406 3.72394 22.3905C3.97399 22.1405 4.31313 22 4.66675 22C5.02037 22 5.35951 22.1405 5.60956 22.3905C5.85961 22.6406 6.00008 22.9797 6.00008 23.3334C6.00008 23.687 5.85961 24.0261 5.60956 24.2762C5.35951 24.5262 5.02037 24.6667 4.66675 24.6667Z" fill="currentColor"/>
</svg>
