<svg width="32" height="20" viewBox="0 0 32 20" fill="none" xmlns="http://www.w3.org/2000/svg">
<path d="M16 0.333252C17.2377 0.333252 18.4247 0.824917 19.2998 1.70009C20.175 2.57526 20.6667 3.76224 20.6667 4.99992C20.6667 6.2376 20.175 7.42458 19.2998 8.29975C18.4247 9.17492 17.2377 9.66658 16 9.66658C14.7623 9.66658 13.5753 9.17492 12.7002 8.29975C11.825 7.42458 11.3333 6.2376 11.3333 4.99992C11.3333 3.76224 11.825 2.57526 12.7002 1.70009C13.5753 0.824917 14.7623 0.333252 16 0.333252ZM6.66667 3.66658C7.41333 3.66658 8.10667 3.86659 8.70667 4.22659C8.50667 6.13325 9.06667 8.02659 10.2133 9.50659C9.54667 10.7866 8.21333 11.6666 6.66667 11.6666C5.6058 11.6666 4.58839 11.2452 3.83824 10.495C3.08809 9.74487 2.66667 8.72745 2.66667 7.66658C2.66667 6.60572 3.08809 5.5883 3.83824 4.83816C4.58839 4.08801 5.6058 3.66659 6.66667 3.66658ZM25.3333 3.66658C26.3942 3.66658 27.4116 4.08801 28.1618 4.83816C28.9119 5.5883 29.3333 6.60572 29.3333 7.66658C29.3333 8.72745 28.9119 9.74487 28.1618 10.495C27.4116 11.2452 26.3942 11.6666 25.3333 11.6666C23.7867 11.6666 22.4533 10.7866 21.7867 9.50659C22.9333 8.02659 23.4933 6.13325 23.2933 4.22659C23.8933 3.86659 24.5867 3.66658 25.3333 3.66658ZM7.33333 17.3333C7.33333 14.5733 11.2133 12.3333 16 12.3333C20.7867 12.3333 24.6667 14.5733 24.6667 17.3333V19.6666H7.33333V17.3333ZM0 19.6666V17.6666C0 15.8133 2.52 14.2533 5.93333 13.7999C5.14667 14.7066 4.66667 15.9599 4.66667 17.3333V19.6666H0ZM32 19.6666H27.3333V17.3333C27.3333 15.9599 26.8533 14.7066 26.0667 13.7999C29.48 14.2533 32 15.8133 32 17.6666V19.6666Z" fill="currentColor"/>
</svg>
